<svg xmlns="http://www.w3.org/2000/svg" enable-background="new 0 0 823 823" viewBox="0 0 823 823" id="coffee-break"><switch><g><path fill="#cce9ff" d="M557.1 87.9C470 30.5 347.6 42.1 270.6 127.3c-42.1 46.6-59.2 110.7-102.9 156.3-49.2 51.4-108 101.3-130.3 171.3-23.7 74.4-2.9 159.7 50.1 216.6 64.5 69.2 159.3 48.4 248.9 47.3C703.3 714.2 976 469.3 629 167.4c-29-25.4-43.1-60.6-71.9-79.5z"></path><path fill="#ffbe55" d="m249.3 139.9-18 47.5h338.2l-18-47.5s-159.5-8.7-302.2 0z"></path><path fill="#f7f7f7" d="m521.6 725.5 71.7-528.2H207.5l71.7 528.2s147 21.4 242.4 0z"></path><path fill="#ffbe55" d="M203 167.5h394.8v37.8H203zM548.1 545H252.7l-26.8-206.2h349z"></path><path fill="#fff" d="M438.3 461.9c11.7-20.9 18.2-46.6-5.3-61.4 0 0-22.4-14.5-47 12.6-19.1 21-28.1 45.5-12.6 64.4 18.6 22.8 53.1 5.3 64.9-15.6zm-36.7-3.3c-15.8 10.9-19.7 23.3-19.7 23.3-2.2-15 4.2-23.3 26.2-40.4 22-17.1 23.1-38.2 23.1-38.2 11.8 28.2-13.8 44.4-29.6 55.3z" opacity=".78"></path><path fill="#d3d3d3" d="m524.7 711.5-2 14.7s-147 21.4-242.4 0l-17.1-126.1c52.2 75.5 139.3 112.6 261.5 111.4z" opacity=".17"></path><path fill="#ffe3ca" d="M112.1 375.8s.4-3.7 1.3-9.2c.9-5.4 7.5-13.6 7.5-13.6-5.5-.4-10 8.6-10 8.6l-.5 4-11-7.1s-9.4-6.9-11.2-7.5c-1.7-.6-9.5 26.2-9.5 26.2l28.6 21.4 12.2-15.7-7.4-7.1z"></path><path fill="#d3d3d3" d="m82.4 351.1 5 39.8 19.9.5 4.8-40.3z"></path><path fill="#ffbe55" d="M78.1 351.6h37.5v-3.9h-3.5v-6.2L81.6 346l-.1 2.2h-3.4v3.9"></path><path fill="#ffe3ca" d="M80.6 378.1c-6.9.7 1.7-18.4 1.7-18.4s18.7-1.3 18.9-.3.1 2.8-1.4 3.1c-1.5.4-13.2 1.9-13.2 1.9s12.2.6 12 1.9c-.4 2-1.8 2.1-5.4 2.7-3.1.5-9.9.7-9.9.7s12.9.3 12.6 1.1c-.3.8.6 3.5-3.8 2.8-10-1.3-11.5 4.5-11.5 4.5z"></path><path fill="#0b4870" d="M165 454.6s-19.1 134.6-10.2 163.1c8.8 28.6 12.2 54.4 12.2 54.4l44.2-12.9s-14.7-67.3-16.8-80.3c-2.2-12.9 20.5-118 20.5-118l-49.9-6.3z"></path><path fill="#0b4870" d="m185.9 464.3 20.9 216.3H249s-13.6-228.9-11.2-230.8c2.5-1.9-51.9 14.5-51.9 14.5z"></path><path fill="#2a94f4" d="M169.2 332.5s-4.5 72.5-14.2 69.9c-9.7-2.6-35.8-21.5-35.8-21.5l-15.9 17.4s48.3 53.8 68.2 31.7c19.9-21.9-2.3-97.5-2.3-97.5z"></path><path fill="#0b4870" d="m182.3 716.7-2.9-14.6 30.9-12.3 4.9 21.8-1.7.3c-6.9 3.2-40.6 18.8-45.9 19.2-5.9.4 14.7-14.4 14.7-14.4z"></path><path fill="#ffe3ca" d="m255.6 503.9-3.4 4.8s-1.6 3.3-5.5 8.3c-1 1.3-2.3 2.4-3.7 3.3-1.7 1.1-4 2.4-5.5 2.7-1.8.4-2.2 2.9-.7 3.5 1.6.7 6.7-.3 11.6-4 4.9-3.7 2.6 5.6 1.8 9.1-.8 3.4-2.6 14.1-1.8 15.2 1.3 1.6 3.2.5 3.9-2.9.7-3.5 3.5-13.6 5.3-13.1 1.8.5-2.4 17.8-2.4 17.8s-1.5 3.6.6 4.2c3.7 1.1 6.7-17.6 7-19.4.2-1.2 2.1-.8 1.9.5-.3 1.4-4.5 17.2-.8 18.4 2.9.9 2.7-15.4 5.4-18.2s-1.1 12.4 1.7 13.2c1 .3 1.8.4 2.8-8.7.9-9.2-.6-34.7-.6-34.7l-17.6.2M194.4 308.1c.4-2.9-1.2-15-1.2-15s-11.1-.8-12.1-11.8c-1-10.9-1.2-36.2-1.2-36.2l19.8-10.5 22.7 16.1 9.9 6.3-10.6 25.5-.9 8.8v14.4l-26.4 2.4z"></path><path fill="#fcd2b1" d="M193.2 293.1s7.4-.2 14.4-5.4c0 0-3 8.2-14 8.1l-.4-2.7z"></path><path fill="#0b4870" d="M236.5 229.2c-1.4-1.5-2.8-2.7-4.1-3.6-15.5-11.6-26.1-1-37.8-3-9.7-1.6-5.7-8.7-5.7-8.7-18.5 6.6-19.5 26.9-7.4 33.3 8.3 4.4 20.4 4.1 30.2 1.2-.3 4.4-.3 9.7.2 14.7l4.5-1.4c.7-7.6 8.8-6.2 9.3-.2 1.1 12.3-5 11.2-5 11.2-.2 2.3.6 6.1 1.4 9.4 1.9.8 30.6-35.7 14.4-52.9z"></path><path fill="#f7f7f7" d="M265.1 336.9s-7.5-35-44.3-31.3l-33.5 3.4s-23 9.7-19.8 37.2c3.2 27.5 4.8 52.5 4 57.4-.8 4.8-8.9 48.1-6.5 51.1 24.2 29.4 86-17.5 86-17.5l14.1-100.3z"></path><path fill="#2a94f4" d="m273.8 507.5-8.7-170.6c-2.5-9.6-7.6-17.1-14.2-23.5-2.8-3.1-11.2-9.7-30.1-7.8l8.5 204.2 19.7-10.6v10.6l24.8-2.3zM194.4 308.1s-22.9 11.3-21.8 49.7c1.1 38.4-13.8 146.7-13.8 146.7l-19.1-3.8S161.8 398 162.8 380c1-18.4-.7-44.3 11.7-62.2 8.8-13 19.9-9.7 19.9-9.7z"></path><path fill="#ffe3ca" d="M182 701c.4-.1-7.8-31-7.8-31l27.1-7.9L207 691l-25 10zM213.7 680.6h30.8v24.2h-30.8z"></path><path fill="#0b4870" d="m210.6 717.9 2.8-14.7h33.3l-3.5 21.5-1.8.1c-7.6.4-44.6 2.4-49.7.8-5.7-1.6 18.9-7.7 18.9-7.7z"></path><path fill="#cce9ff" d="M106 336c1 0 1.7-.8 1.7-1.7 0-3.4-2.3-5-4.2-6.3-1.8-1.2-2.7-2-2.7-3.5s1-2.2 2.7-3.5c1.9-1.3 4.2-3 4.2-6.3 0-3.4-2.3-5-4.2-6.3-1.8-1.2-2.7-2-2.7-3.5 0-1-.8-1.7-1.7-1.7-1 0-1.7.8-1.7 1.7 0 3.4 2.3 5 4.2 6.3 1.8 1.2 2.7 2 2.7 3.5s-1 2.2-2.7 3.5c-1.9 1.3-4.2 3-4.2 6.3s2.3 5 4.2 6.3c1.8 1.2 2.7 2 2.7 3.5-.1 1 .7 1.7 1.7 1.7zM91.2 340.6c1 0 1.7-.8 1.7-1.7 0-3.4-2.3-5-4.2-6.3-1.8-1.2-2.7-2-2.7-3.5s1-2.2 2.7-3.5c1.9-1.3 4.2-3 4.2-6.3 0-3.4-2.3-5-4.2-6.3-1.8-1.2-2.7-2-2.7-3.5 0-1-.8-1.7-1.7-1.7-1 0-1.7.8-1.7 1.7 0 3.4 2.3 5 4.2 6.3 1.8 1.2 2.7 2 2.7 3.5s-1 2.2-2.7 3.5c-1.9 1.3-4.2 3-4.2 6.3 0 3.4 2.3 5 4.2 6.3 1.8 1.2 2.7 2 2.7 3.5 0 .9.7 1.7 1.7 1.7z"></path></g></switch></svg>